<svg width="38" height="30" viewBox="0 0 38 30" fill="none" xmlns="http://www.w3.org/2000/svg">
<g id="&#240;&#159;&#166;&#134; icon &#34;Envelope&#34;">
<path id="Vector" d="M37.2745 10.342C37.5622 10.1133 37.9901 10.3272 37.9901 10.6887V25.7755C37.9901 27.7306 36.4039 29.3167 34.4489 29.3167H3.75887C1.80386 29.3167 0.217712 27.7306 0.217712 25.7755V10.6961C0.217712 10.3272 0.638225 10.1207 0.933322 10.3494C2.58586 11.633 4.77696 13.2634 12.3019 18.7301C13.8586 19.8662 16.4849 22.2565 19.1039 22.2418C21.7376 22.2639 24.4156 19.822 25.9133 18.7301C33.4382 13.2634 35.6219 11.6257 37.2745 10.342ZM19.1039 19.8736C20.8155 19.9031 23.2795 17.7194 24.5189 16.8194C34.3088 9.71491 35.0539 9.09521 37.3114 7.32463C37.7393 6.99264 37.9901 6.47622 37.9901 5.9303V4.52859C37.9901 2.57357 36.4039 0.987427 34.4489 0.987427H3.75887C1.80386 0.987427 0.217712 2.57357 0.217712 4.52859V5.9303C0.217712 6.47622 0.468545 6.98527 0.896435 7.32463C3.15392 9.08783 3.89904 9.71491 13.6889 16.8194C14.9283 17.7194 17.3923 19.9031 19.1039 19.8736Z" fill="black"/>
</g>
</svg>
