<svg width="29" height="30" viewBox="0 0 29 30" fill="none" xmlns="http://www.w3.org/2000/svg">
<g id="Frame 377">
<path id="Vector" d="M27.7616 25.9369L22.3563 20.0957C22.1123 19.832 21.7816 19.6856 21.4346 19.6856H20.5509C22.0472 17.6174 22.9364 15.0161 22.9364 12.1863C22.9364 5.45455 17.8889 0 11.6595 0C5.43007 0 0.382568 5.45455 0.382568 12.1863C0.382568 18.9181 5.43007 24.3726 11.6595 24.3726C14.2781 24.3726 16.6853 23.4118 18.5991 21.7947V22.7497C18.5991 23.1247 18.7347 23.4821 18.9786 23.7457L24.384 29.587C24.8936 30.1377 25.7177 30.1377 26.2219 29.587L27.7562 27.9289C28.2658 27.3782 28.2658 26.4876 27.7616 25.9369ZM11.6595 19.6856C7.82641 19.6856 4.71984 16.3343 4.71984 12.1863C4.71984 8.04414 7.82099 4.68704 11.6595 4.68704C15.4925 4.68704 18.5991 8.03828 18.5991 12.1863C18.5991 16.3285 15.498 19.6856 11.6595 19.6856Z" fill="#DD1C1A"/>
</g>
</svg>
