<svg width="24" height="20" viewBox="0 0 24 20" fill="none" xmlns="http://www.w3.org/2000/svg">
<g id="Group">
<path id="Vector" d="M24 2.575C23.1 2.95 22.2 3.25 21.15 3.325C22.2 2.725 22.95 1.75 23.325 0.625C22.35 1.225 21.3 1.6 20.175 1.825C19.275 0.85 18 0.25 16.65 0.25C13.95 0.25 11.7 2.425 11.7 5.2C11.7 5.575 11.775 5.95 11.85 6.325C7.72502 6.1 4.12502 4.15 1.65002 1.15C1.20002 1.9 0.975018 2.725 0.975018 3.625C0.975018 5.35 1.87502 6.85 3.15002 7.75C2.32502 7.75 1.57502 7.525 0.900018 7.15V7.225C0.900018 9.625 2.62502 11.575 4.87502 12.025C4.42502 12.1 4.05002 12.175 3.60002 12.175C3.30002 12.175 3.00002 12.175 2.70002 12.1C3.30002 14.05 5.17502 15.475 7.27502 15.55C5.62502 16.9 3.45002 17.65 1.12502 17.65C0.750018 17.65 0.300018 17.65 -0.0749817 17.575C2.17502 18.925 4.80002 19.75 7.57502 19.75C16.65 19.75 21.6 12.25 21.6 5.725C21.6 5.5 21.6 5.275 21.6 5.125C22.5 4.375 23.325 3.55 24 2.575Z" fill="black"/>
</g>
</svg>
