<svg width="50" height="50" viewBox="0 0 50 50" fill="none" xmlns="http://www.w3.org/2000/svg">
<g id="&#240;&#159;&#166;&#134; icon &#34;What&#39;s App&#34;">
<path id="Vector" d="M41.7107 7.12881C37.1224 2.52958 31.012 0 24.5183 0C11.1148 0 0.208061 10.9068 0.208061 24.3102C0.208061 28.5919 1.32502 32.775 3.44942 36.4653L0 49.0585L12.8888 45.6748C16.4368 47.613 20.4337 48.6314 24.5073 48.6314H24.5183C37.9108 48.6314 49.0585 37.7247 49.0585 24.3212C49.0585 17.8275 46.2989 11.728 41.7107 7.12881ZM24.5183 44.5359C20.8827 44.5359 17.3238 43.5613 14.2248 41.7216L13.4911 41.2836L5.8476 43.2875L7.8844 35.8302L7.40257 35.0637C5.37672 31.8442 4.31452 28.132 4.31452 24.3102C4.31452 13.1735 13.3816 4.10646 24.5292 4.10646C29.9279 4.10646 34.998 6.20896 38.8088 10.0307C42.6196 13.8525 44.963 18.9226 44.952 24.3212C44.952 35.4688 35.655 44.5359 24.5183 44.5359ZM35.6002 29.4022C34.998 29.0956 32.0085 27.6282 31.45 27.4311C30.8915 27.2231 30.4863 27.1245 30.0812 27.7378C29.676 28.351 28.5152 29.7089 28.1539 30.125C27.8035 30.5301 27.4421 30.5849 26.8398 30.2783C23.2699 28.4933 20.9265 27.0917 18.5721 23.0509C17.948 21.9778 19.1963 22.0544 20.3571 19.7329C20.5542 19.3277 20.4556 18.9773 20.3023 18.6707C20.149 18.3641 18.9335 15.3746 18.4298 14.1591C17.937 12.9764 17.4333 13.1407 17.061 13.1188C16.7105 13.0969 16.3054 13.0969 15.9002 13.0969C15.495 13.0969 14.838 13.2502 14.2795 13.8525C13.721 14.4657 12.1551 15.9331 12.1551 18.9226C12.1551 21.9121 14.3343 24.803 14.6299 25.2082C14.9366 25.6133 18.9116 31.7457 25.0111 34.3847C28.8657 36.0492 30.3768 36.1916 32.3041 35.9069C33.4758 35.7317 35.8959 34.4395 36.3996 33.0159C36.9034 31.5923 36.9034 30.3768 36.7501 30.125C36.6077 29.8512 36.2025 29.6979 35.6002 29.4022Z" fill="black"/>
</g>
</svg>
