<svg width="24" height="24" viewBox="0 0 24 24" fill="none" xmlns="http://www.w3.org/2000/svg">
<g id="Group">
<path id="Vector" d="M24 12.0006C23.9996 9.70744 23.3422 7.46238 22.1056 5.53122C20.8689 3.60006 19.1048 2.06368 17.0221 1.10396C14.9394 0.144245 12.6254 -0.198622 10.3538 0.115955C8.08235 0.430531 5.94854 1.38938 4.20505 2.87898C2.46156 4.36858 1.18139 6.32656 0.516104 8.52111C-0.149185 10.7157 -0.171736 13.0549 0.451122 15.2619C1.07398 17.4688 2.31616 19.4511 4.03061 20.9741C5.74506 22.497 7.85999 23.4968 10.125 23.8551V15.4694H7.0785V12.0006H10.125V9.35687C10.125 6.34937 11.9167 4.68812 14.6572 4.68812C15.5573 4.7006 16.4551 4.77881 17.3438 4.92212V7.87562H15.8302C15.5723 7.84137 15.31 7.86559 15.0628 7.94649C14.8155 8.0274 14.5896 8.16291 14.4018 8.34299C14.214 8.52307 14.0691 8.74309 13.978 8.98676C13.8868 9.23043 13.8516 9.4915 13.875 9.75062V12.0006H17.2035L16.671 15.4694H13.875V23.8551C16.6978 23.4086 19.2686 21.9692 21.1248 19.796C22.9809 17.6228 24.0005 14.8586 24 12.0006Z" fill="black"/>
</g>
</svg>
