<svg width="42" height="25" viewBox="0 0 42 25" fill="none" xmlns="http://www.w3.org/2000/svg">
<g id="&#240;&#159;&#166;&#134; icon &#34;VK&#34;">
<path id="Vector" d="M40.1771 1.65624C40.4595 0.702183 40.1771 0 38.8185 0H34.323C33.1781 0 32.6515 0.602961 32.3691 1.27461C32.3691 1.27461 30.0794 6.85392 26.8432 10.4717C25.7976 11.5173 25.3167 11.8532 24.7443 11.8532C24.4619 11.8532 24.0269 11.5173 24.0269 10.5633V1.65624C24.0269 0.511372 23.7063 0 22.7599 0H15.6923C14.9748 0 14.5474 0.53427 14.5474 1.03038C14.5474 2.11418 16.1655 2.36605 16.3334 5.41902V12.044C16.3334 13.4941 16.0739 13.7613 15.5014 13.7613C13.975 13.7613 10.2656 8.15906 8.06747 1.74782C7.62479 0.50374 7.18974 0 6.03725 0H1.54175C0.259502 0 0 0.602961 0 1.27461C0 2.46527 1.52648 8.3804 7.10579 16.196C10.8228 21.5311 16.0586 24.4238 20.8212 24.4238C23.6834 24.4238 24.0345 23.7826 24.0345 22.6759C24.0345 17.5775 23.775 17.0966 25.2099 17.0966C25.8739 17.0966 27.0188 17.4325 29.6901 20.0046C32.7431 23.0575 33.2468 24.4238 34.9565 24.4238H39.452C40.7342 24.4238 41.383 23.7826 41.009 22.5156C40.1542 19.8519 34.3764 14.3719 34.1169 14.0055C33.4529 13.1507 33.6437 12.769 34.1169 12.0058C34.1246 11.9982 39.6123 4.27416 40.1771 1.65624Z" fill="black"/>
</g>
</svg>
